<svg width="48" height="48" viewBox="0 0 48 48" fill="none" xmlns="http://www.w3.org/2000/svg">
<path d="M16 32C7.16561 32 0 39.1655 0 47.9999H32C32 39.1655 24.8343 32 15.9999 32H16Z" fill="white"/>
<path d="M15.9999 16C15.9999 7.16561 8.83443 0 0 0V32C8.83443 32 15.9999 24.8345 15.9999 15.9999V16Z" fill="white"/>
<path d="M31.9999 16C40.8343 16 48 8.83455 48 0H16C16 8.83443 23.1655 15.9999 32 15.9999L31.9999 16Z" fill="white"/>
<path d="M32 31.9999C32 40.8343 39.1655 48 47.9999 48V16C39.1655 16 32 23.1655 32 32V31.9999Z" fill="white"/>
</svg>
