<svg width="260" height="48" viewBox="0 0 260 48" fill="none" xmlns="http://www.w3.org/2000/svg">
    <path d="M16 32C7.16561 32 0 39.1655 0 47.9999H32C32 39.1655 24.8343 32 15.9999 32H16Z" fill="black" />
    <path d="M15.9999 16C15.9999 7.16561 8.83443 0 0 0V32C8.83443 32 15.9999 24.8345 15.9999 15.9999V16Z"
        fill="black" />
    <path d="M31.9999 16C40.8343 16 48 8.83455 48 0H16C16 8.83443 23.1655 15.9999 32 15.9999L31.9999 16Z"
        fill="black" />
    <path d="M32 31.9999C32 40.8343 39.1655 48 47.9999 48V16C39.1655 16 32 23.1655 32 32V31.9999Z" fill="black" />
    <path
        d="M71 38.2C68.9467 38.2 67.0933 37.8 65.44 37C63.7867 36.2 62.36 35.12 61.16 33.76C59.96 32.3733 59.0267 30.8267 58.36 29.12C57.72 27.3867 57.4 25.6133 57.4 23.8C57.4 21.9067 57.7467 20.1067 58.44 18.4C59.1333 16.6667 60.0933 15.1333 61.32 13.8C62.5467 12.44 63.9867 11.3733 65.64 10.6C67.32 9.8 69.1333 9.4 71.08 9.4C73.1067 9.4 74.9467 9.81333 76.6 10.64C78.28 11.4667 79.7067 12.5733 80.88 13.96C82.08 15.3467 83 16.8933 83.64 18.6C84.3067 20.3067 84.64 22.0533 84.64 23.84C84.64 25.7333 84.2933 27.5467 83.6 29.28C82.9333 30.9867 81.9867 32.52 80.76 33.88C79.5333 35.2133 78.08 36.2667 76.4 37.04C74.7467 37.8133 72.9467 38.2 71 38.2ZM61.96 23.8C61.96 25.1333 62.1733 26.4267 62.6 27.68C63.0267 28.9333 63.6267 30.0533 64.4 31.04C65.2 32 66.16 32.76 67.28 33.32C68.4 33.88 69.6533 34.16 71.04 34.16C72.48 34.16 73.76 33.8667 74.88 33.28C76 32.6933 76.9333 31.9067 77.68 30.92C78.4533 29.9067 79.04 28.7867 79.44 27.56C79.84 26.3067 80.04 25.0533 80.04 23.8C80.04 22.4667 79.8267 21.1867 79.4 19.96C79 18.7067 78.4 17.6 77.6 16.64C76.8 15.6533 75.84 14.88 74.72 14.32C73.6267 13.76 72.4 13.48 71.04 13.48C69.6 13.48 68.32 13.7733 67.2 14.36C66.08 14.9467 65.1333 15.7333 64.36 16.72C63.5867 17.7067 62.9867 18.8133 62.56 20.04C62.16 21.2667 61.96 22.52 61.96 23.8ZM100.403 38.4C98.7228 38.4 97.2428 38 95.9628 37.2C94.6828 36.4 93.6695 35.36 92.9228 34.08V46.52H88.5228V17.08H92.4028V20.84C93.2028 19.5867 94.2428 18.5867 95.5228 17.84C96.8028 17.0933 98.2295 16.72 99.8028 16.72C101.243 16.72 102.563 17.0133 103.763 17.6C104.963 18.16 106.003 18.9467 106.883 19.96C107.763 20.9733 108.443 22.1333 108.923 23.44C109.429 24.72 109.683 26.08 109.683 27.52C109.683 29.52 109.283 31.3467 108.483 33C107.709 34.6533 106.616 35.9733 105.203 36.96C103.816 37.92 102.216 38.4 100.403 38.4ZM98.9628 34.64C99.8961 34.64 100.736 34.44 101.483 34.04C102.256 33.64 102.909 33.1067 103.443 32.44C104.003 31.7733 104.429 31.0133 104.723 30.16C105.016 29.3067 105.163 28.4267 105.163 27.52C105.163 26.56 105.003 25.6533 104.683 24.8C104.363 23.9467 103.896 23.2 103.283 22.56C102.696 21.92 102.003 21.4133 101.203 21.04C100.429 20.6667 99.5761 20.48 98.6428 20.48C98.0828 20.48 97.4961 20.5867 96.8828 20.8C96.2695 21.0133 95.6961 21.3067 95.1628 21.68C94.6295 22.0533 94.1628 22.4933 93.7628 23C93.3628 23.5067 93.0828 24.04 92.9228 24.6V30.08C93.2961 30.9333 93.7895 31.7067 94.4028 32.4C95.0161 33.0667 95.7228 33.6133 96.5228 34.04C97.3228 34.44 98.1361 34.64 98.9628 34.64ZM123.12 38.4C121.493 38.4 120.013 38.12 118.68 37.56C117.373 36.9733 116.24 36.1867 115.28 35.2C114.32 34.1867 113.573 33.04 113.04 31.76C112.533 30.4533 112.28 29.0667 112.28 27.6C112.28 25.6267 112.733 23.8267 113.64 22.2C114.547 20.5467 115.813 19.2267 117.44 18.24C119.067 17.2267 120.973 16.72 123.16 16.72C125.347 16.72 127.227 17.2267 128.8 18.24C130.4 19.2267 131.64 20.5333 132.52 22.16C133.4 23.7867 133.84 25.5333 133.84 27.4C133.84 27.72 133.827 28.0267 133.8 28.32C133.773 28.5867 133.747 28.8133 133.72 29H116.96C117.04 30.2267 117.373 31.3067 117.96 32.24C118.573 33.1467 119.347 33.8667 120.28 34.4C121.213 34.9067 122.213 35.16 123.28 35.16C124.453 35.16 125.56 34.8667 126.6 34.28C127.667 33.6933 128.387 32.92 128.76 31.96L132.52 33.04C132.067 34.0533 131.373 34.9733 130.44 35.8C129.533 36.6 128.453 37.24 127.2 37.72C125.947 38.1733 124.587 38.4 123.12 38.4ZM116.84 26.08H129.48C129.4 24.88 129.053 23.8267 128.44 22.92C127.853 21.9867 127.093 21.2667 126.16 20.76C125.253 20.2267 124.24 19.96 123.12 19.96C122.027 19.96 121.013 20.2267 120.08 20.76C119.173 21.2667 118.427 21.9867 117.84 22.92C117.253 23.8267 116.92 24.88 116.84 26.08ZM156.189 38H151.789V26.28C151.789 24.3333 151.469 22.9067 150.829 22C150.216 21.0933 149.296 20.64 148.069 20.64C147.216 20.64 146.362 20.8533 145.509 21.28C144.682 21.7067 143.936 22.2933 143.269 23.04C142.602 23.76 142.122 24.6 141.829 25.56V38H137.429V17.08H141.429V21.28C141.962 20.3467 142.656 19.5467 143.509 18.88C144.389 18.1867 145.376 17.6533 146.469 17.28C147.562 16.9067 148.722 16.72 149.949 16.72C151.202 16.72 152.229 16.9467 153.029 17.4C153.856 17.8533 154.496 18.48 154.949 19.28C155.429 20.0533 155.749 20.96 155.909 22C156.096 23.0133 156.189 24.0933 156.189 25.24V38ZM178.617 16.28C178.351 15.9867 177.964 15.68 177.457 15.36C176.951 15.0133 176.351 14.6933 175.657 14.4C174.964 14.1067 174.217 13.8667 173.417 13.68C172.617 13.4933 171.791 13.4 170.937 13.4C169.071 13.4 167.684 13.7467 166.777 14.44C165.871 15.1333 165.417 16.0933 165.417 17.32C165.417 18.2267 165.671 18.9467 166.177 19.48C166.684 19.9867 167.457 20.4133 168.497 20.76C169.537 21.1067 170.844 21.48 172.417 21.88C174.337 22.3333 176.004 22.88 177.417 23.52C178.831 24.1333 179.911 24.96 180.657 26C181.404 27.04 181.777 28.4133 181.777 30.12C181.777 31.56 181.511 32.8 180.977 33.84C180.444 34.88 179.697 35.7333 178.737 36.4C177.777 37.04 176.671 37.52 175.417 37.84C174.164 38.1333 172.817 38.28 171.377 38.28C169.964 38.28 168.551 38.1333 167.137 37.84C165.751 37.5467 164.417 37.12 163.137 36.56C161.884 35.9733 160.724 35.2667 159.657 34.44L161.697 30.6C162.044 30.9467 162.537 31.3333 163.177 31.76C163.844 32.16 164.604 32.5467 165.457 32.92C166.337 33.2933 167.284 33.6133 168.297 33.88C169.337 34.12 170.391 34.24 171.457 34.24C173.244 34.24 174.604 33.9333 175.537 33.32C176.497 32.68 176.977 31.7733 176.977 30.6C176.977 29.64 176.671 28.88 176.057 28.32C175.444 27.7333 174.551 27.24 173.377 26.84C172.204 26.44 170.804 26.04 169.177 25.64C167.311 25.1333 165.751 24.5867 164.497 24C163.244 23.3867 162.297 22.6133 161.657 21.68C161.044 20.72 160.737 19.5067 160.737 18.04C160.737 16.1733 161.191 14.6 162.097 13.32C163.004 12.0133 164.231 11.04 165.777 10.4C167.351 9.73333 169.111 9.4 171.057 9.4C172.337 9.4 173.551 9.54667 174.697 9.84C175.844 10.1067 176.911 10.48 177.897 10.96C178.911 11.44 179.831 11.9867 180.657 12.6L178.617 16.28ZM186.27 38V9.6H196.35C199.417 9.6 201.977 10.24 204.03 11.52C206.084 12.7733 207.617 14.48 208.63 16.64C209.67 18.7733 210.19 21.1467 210.19 23.76C210.19 26.64 209.617 29.1467 208.47 31.28C207.35 33.4133 205.75 35.0667 203.67 36.24C201.59 37.4133 199.15 38 196.35 38H186.27ZM205.63 23.76C205.63 21.76 205.257 20 204.51 18.48C203.79 16.9333 202.737 15.7333 201.35 14.88C199.99 14 198.324 13.56 196.35 13.56H190.75V34.04H196.35C198.35 34.04 200.03 33.5867 201.39 32.68C202.777 31.7733 203.83 30.5467 204.55 29C205.27 27.4533 205.63 25.7067 205.63 23.76ZM214.903 38V9.64H219.383V24.24L232.743 9.6H237.703L226.503 22.16L238.343 38H233.263L223.663 25L219.383 29.44V38H214.903ZM248.15 38.4C246.39 38.4 244.724 38.12 243.15 37.56C241.577 36.9733 240.23 36.1067 239.11 34.96L240.75 32C241.95 33.0667 243.15 33.84 244.35 34.32C245.577 34.8 246.79 35.04 247.99 35.04C249.217 35.04 250.217 34.8133 250.99 34.36C251.764 33.88 252.15 33.1867 252.15 32.28C252.15 31.6133 251.95 31.12 251.55 30.8C251.15 30.48 250.564 30.2 249.79 29.96C249.044 29.72 248.137 29.4533 247.07 29.16C245.577 28.7067 244.324 28.24 243.31 27.76C242.297 27.2533 241.537 26.64 241.03 25.92C240.524 25.2 240.27 24.28 240.27 23.16C240.27 21.8 240.617 20.64 241.31 19.68C242.004 18.72 242.964 17.9867 244.19 17.48C245.444 16.9733 246.884 16.72 248.51 16.72C250.03 16.72 251.43 16.96 252.71 17.44C254.017 17.8933 255.164 18.6133 256.15 19.6L254.27 22.52C253.337 21.6667 252.377 21.04 251.39 20.64C250.43 20.24 249.39 20.04 248.27 20.04C247.63 20.04 247.017 20.12 246.43 20.28C245.844 20.4133 245.35 20.68 244.95 21.08C244.577 21.4533 244.39 21.9867 244.39 22.68C244.39 23.24 244.55 23.6933 244.87 24.04C245.19 24.3867 245.67 24.68 246.31 24.92C246.95 25.16 247.737 25.4267 248.67 25.72C250.297 26.2 251.684 26.68 252.83 27.16C253.977 27.6133 254.857 28.2133 255.47 28.96C256.11 29.68 256.43 30.68 256.43 31.96C256.43 33.9867 255.67 35.5733 254.15 36.72C252.657 37.84 250.657 38.4 248.15 38.4Z"
        fill="black" />
</svg>